<?xml version="1.0" encoding="utf-8"?>
<!-- Generator: Adobe Illustrator 19.2.1, SVG Export Plug-In . SVG Version: 6.00 Build 0)  -->
<svg version="1.1" id="Layer_1" xmlns="http://www.w3.org/2000/svg" xmlns:xlink="http://www.w3.org/1999/xlink" x="0px" y="0px"
	 viewBox="0 0 100 125" style="enable-background:new 0 0 100 125;" xml:space="preserve">
<style type="text/css">
	.st0{fill:#C6B89E;}
</style>
<g>
	<g>
		<path class="st0" d="M94.8,49.2C94.8,24.5,74.7,4.4,50,4.4S5.2,24.5,5.2,49.2v12.3c-1.6,2.8-2.5,6-2.5,9.4c0,9.9,7.6,18.1,17.2,19
			c0.9,3.3,3.9,5.7,7.5,5.7c4.3,0,7.9-3.5,7.9-7.9V54c0-4.3-3.5-7.9-7.9-7.9c-3.6,0-6.6,2.4-7.5,5.7c-0.6,0.1-1.3,0.2-1.9,0.3v-2.9
			c0-17.6,14.3-31.9,31.9-31.9s31.9,14.3,31.9,31.9v2.9c-0.6-0.1-1.2-0.2-1.9-0.3c-0.9-3.3-3.9-5.7-7.5-5.7c-4.3,0-7.9,3.5-7.9,7.9
			v33.8c0,4.3,3.5,7.9,7.9,7.9c3.6,0,6.6-2.4,7.5-5.7c9.6-1,17.2-9.1,17.2-19c0-3.4-0.9-6.6-2.5-9.4V49.2z M92.5,73.5
			c-0.2,1-0.5,2-0.9,3c-0.3,0.8-0.7,1.5-1.2,2.2c-2.2,3.4-5.8,5.9-10.1,6.6V56.4c0.5,0.1,1,0.2,1.5,0.3c0.8,0.2,1.5,0.5,2.2,0.8
			c0.8,0.4,1.5,0.8,2.2,1.3c1.5,1,2.8,2.4,3.8,3.9c1.1,1.6,1.9,3.5,2.3,5.5c0.2,0.9,0.2,1.7,0.2,2.6C92.7,71.7,92.7,72.6,92.5,73.5z
			 M69.1,87.7V54c0-1.9,1.5-3.4,3.4-3.4s3.4,1.5,3.4,3.4v33.8c0,1.9-1.5,3.4-3.4,3.4S69.1,89.6,69.1,87.7z M90.2,56.1
			c-1.2-1-2.5-1.8-3.8-2.4v-4.5c0-20.1-16.3-36.4-36.4-36.4S13.6,29.1,13.6,49.2v4.5c-1.4,0.7-2.7,1.5-3.8,2.4v-6.9
			C9.8,27,27.8,8.9,50,8.9S90.2,27,90.2,49.2V56.1z M30.9,54v33.8c0,1.9-1.5,3.4-3.4,3.4s-3.4-1.5-3.4-3.4V54c0-1.9,1.5-3.4,3.4-3.4
			S30.9,52.1,30.9,54z M19.6,85.3c-4.2-0.7-7.8-3.1-10.1-6.6c-0.5-0.7-0.9-1.5-1.2-2.2c-0.4-0.9-0.7-2-0.9-3
			c-0.2-0.9-0.2-1.7-0.2-2.6s0.1-1.8,0.2-2.6c0.4-2,1.1-3.9,2.3-5.5c1-1.5,2.3-2.8,3.8-3.9c0.7-0.5,1.5-0.9,2.2-1.3
			c0.7-0.3,1.5-0.6,2.2-0.8c0.5-0.1,1-0.2,1.5-0.3C19.6,56.4,19.6,85.3,19.6,85.3z"/>
	</g>
</g>
</svg>
